<mxfile host="app.diagrams.net" agent="Mozilla/5.0 (Windows NT 10.0; Win64; x64) AppleWebKit/537.36 (KHTML, like Gecko) Chrome/140.0.0.0 Safari/537.36" version="28.2.3">
  <diagram name="Page-1" id="vKL5HBhX_UyEzxoaU6t-">
    <mxGraphModel dx="1042" dy="527" grid="1" gridSize="10" guides="1" tooltips="1" connect="1" arrows="1" fold="1" page="1" pageScale="1" pageWidth="850" pageHeight="1100" math="0" shadow="0">
      <root>
        <mxCell id="0" />
        <mxCell id="1" parent="0" />
        <mxCell id="5thMwRTjnBdXIXsWUNBh-7" value="Registered User" style="shape=umlActor;verticalLabelPosition=bottom;verticalAlign=top;html=1;outlineConnect=0;" parent="1" vertex="1">
          <mxGeometry x="160" y="300" width="20" height="40" as="geometry" />
        </mxCell>
        <mxCell id="5thMwRTjnBdXIXsWUNBh-16" value="Login" style="ellipse;whiteSpace=wrap;html=1;" parent="1" vertex="1">
          <mxGeometry x="330" y="300" width="70" height="40" as="geometry" />
        </mxCell>
        <mxCell id="5thMwRTjnBdXIXsWUNBh-17" value="" style="endArrow=none;html=1;rounded=0;entryX=0;entryY=0.5;entryDx=0;entryDy=0;" parent="1" target="5thMwRTjnBdXIXsWUNBh-16" edge="1">
          <mxGeometry width="50" height="50" relative="1" as="geometry">
            <mxPoint x="190" y="320" as="sourcePoint" />
            <mxPoint x="450" y="270" as="targetPoint" />
          </mxGeometry>
        </mxCell>
        <mxCell id="5thMwRTjnBdXIXsWUNBh-20" value="Register" style="ellipse;whiteSpace=wrap;html=1;" parent="1" vertex="1">
          <mxGeometry x="330" y="170" width="70" height="40" as="geometry" />
        </mxCell>
        <mxCell id="5thMwRTjnBdXIXsWUNBh-22" value="" style="endArrow=none;html=1;rounded=0;entryX=0;entryY=0.5;entryDx=0;entryDy=0;" parent="1" target="5thMwRTjnBdXIXsWUNBh-20" edge="1">
          <mxGeometry width="50" height="50" relative="1" as="geometry">
            <mxPoint x="200" y="230" as="sourcePoint" />
            <mxPoint x="350" y="270" as="targetPoint" />
          </mxGeometry>
        </mxCell>
        <mxCell id="5thMwRTjnBdXIXsWUNBh-24" value="View Drafts or Posts" style="ellipse;whiteSpace=wrap;html=1;" parent="1" vertex="1">
          <mxGeometry x="330" y="220" width="70" height="40" as="geometry" />
        </mxCell>
        <mxCell id="5thMwRTjnBdXIXsWUNBh-25" value="" style="endArrow=none;html=1;rounded=0;entryX=0;entryY=0.5;entryDx=0;entryDy=0;" parent="1" target="5thMwRTjnBdXIXsWUNBh-24" edge="1">
          <mxGeometry width="50" height="50" relative="1" as="geometry">
            <mxPoint x="190" y="300" as="sourcePoint" />
            <mxPoint x="320" y="240" as="targetPoint" />
          </mxGeometry>
        </mxCell>
        <mxCell id="5thMwRTjnBdXIXsWUNBh-27" value="Create or Delete Re-draft" style="ellipse;whiteSpace=wrap;html=1;" parent="1" vertex="1">
          <mxGeometry x="330" y="340" width="70" height="40" as="geometry" />
        </mxCell>
        <mxCell id="5thMwRTjnBdXIXsWUNBh-28" value="" style="endArrow=none;html=1;rounded=0;entryX=0.046;entryY=0.35;entryDx=0;entryDy=0;entryPerimeter=0;exitX=1;exitY=1;exitDx=0;exitDy=0;exitPerimeter=0;" parent="1" source="5thMwRTjnBdXIXsWUNBh-7" target="5thMwRTjnBdXIXsWUNBh-27" edge="1">
          <mxGeometry width="50" height="50" relative="1" as="geometry">
            <mxPoint x="210" y="320" as="sourcePoint" />
            <mxPoint x="330" y="380" as="targetPoint" />
          </mxGeometry>
        </mxCell>
        <mxCell id="5thMwRTjnBdXIXsWUNBh-32" value="Interact with posts/comments" style="ellipse;whiteSpace=wrap;html=1;" parent="1" vertex="1">
          <mxGeometry x="330" y="380" width="70" height="40" as="geometry" />
        </mxCell>
        <mxCell id="5thMwRTjnBdXIXsWUNBh-33" value="" style="endArrow=none;html=1;rounded=0;entryX=0;entryY=0.5;entryDx=0;entryDy=0;" parent="1" target="5thMwRTjnBdXIXsWUNBh-32" edge="1">
          <mxGeometry width="50" height="50" relative="1" as="geometry">
            <mxPoint x="200" y="360" as="sourcePoint" />
            <mxPoint x="450" y="270" as="targetPoint" />
          </mxGeometry>
        </mxCell>
        <mxCell id="5thMwRTjnBdXIXsWUNBh-34" value="" style="endArrow=none;html=1;rounded=0;exitX=1;exitY=0.3333333333333333;exitDx=0;exitDy=0;exitPerimeter=0;entryX=0;entryY=0.5;entryDx=0;entryDy=0;" parent="1" source="5thMwRTjnBdXIXsWUNBh-7" target="5thMwRTjnBdXIXsWUNBh-36" edge="1">
          <mxGeometry width="50" height="50" relative="1" as="geometry">
            <mxPoint x="200" y="230" as="sourcePoint" />
            <mxPoint x="331.4482266544237" y="202.11704283087988" as="targetPoint" />
          </mxGeometry>
        </mxCell>
        <mxCell id="5thMwRTjnBdXIXsWUNBh-36" value="Edit Profile" style="ellipse;whiteSpace=wrap;html=1;" parent="1" vertex="1">
          <mxGeometry x="330" y="260" width="70" height="40" as="geometry" />
        </mxCell>
        <mxCell id="5thMwRTjnBdXIXsWUNBh-37" value="Admin" style="shape=umlActor;verticalLabelPosition=bottom;verticalAlign=top;html=1;outlineConnect=0;" parent="1" vertex="1">
          <mxGeometry x="600" y="240" width="20" height="40" as="geometry" />
        </mxCell>
        <mxCell id="5thMwRTjnBdXIXsWUNBh-38" value="" style="endArrow=none;html=1;rounded=0;exitX=0.983;exitY=0.21;exitDx=0;exitDy=0;exitPerimeter=0;" parent="1" source="5thMwRTjnBdXIXsWUNBh-16" edge="1">
          <mxGeometry width="50" height="50" relative="1" as="geometry">
            <mxPoint x="400" y="320" as="sourcePoint" />
            <mxPoint x="590" y="260" as="targetPoint" />
          </mxGeometry>
        </mxCell>
        <mxCell id="5thMwRTjnBdXIXsWUNBh-41" value="" style="endArrow=none;html=1;rounded=0;exitX=1;exitY=0.5;exitDx=0;exitDy=0;entryX=0.25;entryY=0.1;entryDx=0;entryDy=0;entryPerimeter=0;" parent="1" source="5thMwRTjnBdXIXsWUNBh-36" target="5thMwRTjnBdXIXsWUNBh-37" edge="1">
          <mxGeometry width="50" height="50" relative="1" as="geometry">
            <mxPoint x="400" y="320" as="sourcePoint" />
            <mxPoint x="590" y="170" as="targetPoint" />
          </mxGeometry>
        </mxCell>
        <mxCell id="5thMwRTjnBdXIXsWUNBh-42" value="" style="endArrow=none;html=1;rounded=0;exitX=1;exitY=0.5;exitDx=0;exitDy=0;entryX=0.25;entryY=0.1;entryDx=0;entryDy=0;entryPerimeter=0;" parent="1" source="5thMwRTjnBdXIXsWUNBh-24" target="5thMwRTjnBdXIXsWUNBh-37" edge="1">
          <mxGeometry width="50" height="50" relative="1" as="geometry">
            <mxPoint x="400" y="320" as="sourcePoint" />
            <mxPoint x="590" y="180" as="targetPoint" />
          </mxGeometry>
        </mxCell>
        <mxCell id="5thMwRTjnBdXIXsWUNBh-43" value="" style="endArrow=none;html=1;rounded=0;" parent="1" edge="1">
          <mxGeometry width="50" height="50" relative="1" as="geometry">
            <mxPoint x="400" y="360" as="sourcePoint" />
            <mxPoint x="590" y="270" as="targetPoint" />
          </mxGeometry>
        </mxCell>
        <mxCell id="5thMwRTjnBdXIXsWUNBh-44" value="" style="endArrow=none;html=1;rounded=0;exitX=1.029;exitY=0.35;exitDx=0;exitDy=0;exitPerimeter=0;" parent="1" source="5thMwRTjnBdXIXsWUNBh-32" edge="1">
          <mxGeometry width="50" height="50" relative="1" as="geometry">
            <mxPoint x="400" y="320" as="sourcePoint" />
            <mxPoint x="590" y="280" as="targetPoint" />
          </mxGeometry>
        </mxCell>
        <mxCell id="5thMwRTjnBdXIXsWUNBh-46" value="Delete other user&#39;s posts" style="ellipse;whiteSpace=wrap;html=1;" parent="1" vertex="1">
          <mxGeometry x="425" y="380" width="70" height="40" as="geometry" />
        </mxCell>
        <mxCell id="5thMwRTjnBdXIXsWUNBh-47" value="" style="endArrow=none;html=1;rounded=0;exitX=1;exitY=0.5;exitDx=0;exitDy=0;" parent="1" source="5thMwRTjnBdXIXsWUNBh-46" edge="1">
          <mxGeometry width="50" height="50" relative="1" as="geometry">
            <mxPoint x="467.99" y="480.4" as="sourcePoint" />
            <mxPoint x="600" y="310" as="targetPoint" />
          </mxGeometry>
        </mxCell>
        <mxCell id="5thMwRTjnBdXIXsWUNBh-64" value="Unregistered User" style="shape=umlActor;verticalLabelPosition=bottom;verticalAlign=top;html=1;outlineConnect=0;" parent="1" vertex="1">
          <mxGeometry x="180" y="200" width="20" height="40" as="geometry" />
        </mxCell>
        <mxCell id="5thMwRTjnBdXIXsWUNBh-66" value="" style="endArrow=none;html=1;rounded=0;entryX=0.057;entryY=0.29;entryDx=0;entryDy=0;entryPerimeter=0;" parent="1" target="5thMwRTjnBdXIXsWUNBh-24" edge="1">
          <mxGeometry width="50" height="50" relative="1" as="geometry">
            <mxPoint x="220" y="230" as="sourcePoint" />
            <mxPoint x="450" y="270" as="targetPoint" />
          </mxGeometry>
        </mxCell>
        <mxCell id="5thMwRTjnBdXIXsWUNBh-67" value="" style="rounded=1;whiteSpace=wrap;html=1;perimeterSpacing=2;fillColor=none;" parent="1" vertex="1">
          <mxGeometry x="290" y="115" width="260" height="330" as="geometry" />
        </mxCell>
        <mxCell id="5thMwRTjnBdXIXsWUNBh-68" value="Catch&amp;amp;Shoot Frontend (Colin)" style="text;html=1;align=center;verticalAlign=middle;whiteSpace=wrap;rounded=0;" parent="1" vertex="1">
          <mxGeometry x="360" y="130" width="90" height="30" as="geometry" />
        </mxCell>
      </root>
    </mxGraphModel>
  </diagram>
</mxfile>
